<svg width="489" height="90" viewBox="0 0 489 90" fill="none" xmlns="http://www.w3.org/2000/svg">
<path d="M17.468 68.816C13.66 68.816 10.3733 68.204 7.608 66.98C4.888 65.756 2.68933 64.124 1.012 62.084L5.568 58.004C7.10933 59.6813 8.832 60.9733 10.736 61.88C12.6853 62.7413 14.9747 63.172 17.604 63.172C20.0067 63.172 21.9333 62.764 23.384 61.948C24.88 61.132 25.628 59.8627 25.628 58.14C25.628 57.4147 25.492 56.8027 25.22 56.304C24.948 55.8053 24.5627 55.3973 24.064 55.08C23.5653 54.7627 22.976 54.5133 22.296 54.332C21.6613 54.1507 20.9813 54.0147 20.256 53.924L14.68 53.04C13.32 52.8587 11.9373 52.564 10.532 52.156C9.12667 51.748 7.85733 51.1813 6.724 50.456C5.636 49.6853 4.72933 48.7107 4.004 47.532C3.324 46.3533 2.984 44.8573 2.984 43.044C2.984 39.4627 4.344 36.7427 7.064 34.884C9.82933 33.0253 13.456 32.096 17.944 32.096C21.208 32.096 24.0187 32.5947 26.376 33.592C28.7787 34.544 30.7733 35.8813 32.36 37.604L28.212 41.956C27.3053 40.9133 26.0133 39.9613 24.336 39.1C22.6587 38.1933 20.4373 37.74 17.672 37.74C12.7307 37.74 10.26 39.304 10.26 42.432C10.26 43.928 10.7813 44.9707 11.824 45.56C12.912 46.104 14.1813 46.4667 15.632 46.648L21.208 47.532C22.6133 47.7587 23.996 48.0533 25.356 48.416C26.7613 48.7787 28.008 49.3453 29.096 50.116C30.2293 50.8413 31.136 51.7933 31.816 52.972C32.5413 54.1507 32.904 55.6467 32.904 57.46C32.904 60.996 31.5213 63.784 28.756 65.824C26.036 67.8187 22.2733 68.816 17.468 68.816ZM58.7734 68.816C56.1894 68.816 53.8548 68.3853 51.7694 67.524C49.7294 66.6627 47.9841 65.4387 46.5334 63.852C45.1281 62.2653 44.0401 60.3387 43.2694 58.072C42.4988 55.8053 42.1134 53.2667 42.1134 50.456C42.1134 47.6453 42.4988 45.1067 43.2694 42.84C44.0401 40.5733 45.1281 38.6467 46.5334 37.06C47.9841 35.4733 49.7294 34.2493 51.7694 33.388C53.8548 32.5267 56.1894 32.096 58.7734 32.096C61.3574 32.096 63.6694 32.5267 65.7094 33.388C67.7948 34.2493 69.5401 35.4733 70.9454 37.06C72.3961 38.6467 73.5068 40.5733 74.2774 42.84C75.0481 45.1067 75.4334 47.6453 75.4334 50.456C75.4334 53.2667 75.0481 55.8053 74.2774 58.072C73.5068 60.3387 72.3961 62.2653 70.9454 63.852C69.5401 65.4387 67.7948 66.6627 65.7094 67.524C63.6694 68.3853 61.3574 68.816 58.7734 68.816ZM58.7734 62.968C61.4934 62.968 63.6468 62.152 65.2334 60.52C66.8654 58.8427 67.6814 56.372 67.6814 53.108V47.804C67.6814 44.54 66.8654 42.092 65.2334 40.46C63.6468 38.7827 61.4934 37.944 58.7734 37.944C56.0534 37.944 53.8774 38.7827 52.2454 40.46C50.6588 42.092 49.8654 44.54 49.8654 47.804V53.108C49.8654 56.372 50.6588 58.8427 52.2454 60.52C53.8774 62.152 56.0534 62.968 58.7734 62.968ZM107.423 62.016H107.083C106.72 62.9227 106.244 63.8067 105.655 64.668C105.111 65.484 104.431 66.2093 103.615 66.844C102.799 67.4333 101.847 67.9093 100.759 68.272C99.6709 68.6347 98.4015 68.816 96.9509 68.816C93.4149 68.816 90.5589 67.66 88.3829 65.348C86.2069 63.036 85.1189 59.7493 85.1189 55.488V32.912H92.5309V54.4C92.5309 59.976 94.9562 62.764 99.8069 62.764C100.759 62.764 101.688 62.6507 102.595 62.424C103.502 62.152 104.318 61.7667 105.043 61.268C105.768 60.7693 106.335 60.1573 106.743 59.432C107.196 58.6613 107.423 57.7547 107.423 56.712V32.912H114.835V68H107.423V62.016ZM126.22 62.016H137.848V23.664H126.22V17.68H145.26V62.016H156.888V68H126.22V62.016ZM182.962 68.816C179.154 68.816 175.867 68.204 173.102 66.98C170.382 65.756 168.183 64.124 166.506 62.084L171.062 58.004C172.603 59.6813 174.326 60.9733 176.23 61.88C178.179 62.7413 180.468 63.172 183.098 63.172C185.5 63.172 187.427 62.764 188.878 61.948C190.374 61.132 191.122 59.8627 191.122 58.14C191.122 57.4147 190.986 56.8027 190.714 56.304C190.442 55.8053 190.056 55.3973 189.558 55.08C189.059 54.7627 188.47 54.5133 187.79 54.332C187.155 54.1507 186.475 54.0147 185.75 53.924L180.174 53.04C178.814 52.8587 177.431 52.564 176.026 52.156C174.62 51.748 173.351 51.1813 172.218 50.456C171.13 49.6853 170.223 48.7107 169.498 47.532C168.818 46.3533 168.478 44.8573 168.478 43.044C168.478 39.4627 169.838 36.7427 172.558 34.884C175.323 33.0253 178.95 32.096 183.438 32.096C186.702 32.096 189.512 32.5947 191.87 33.592C194.272 34.544 196.267 35.8813 197.854 37.604L193.706 41.956C192.799 40.9133 191.507 39.9613 189.83 39.1C188.152 38.1933 185.931 37.74 183.166 37.74C178.224 37.74 175.754 39.304 175.754 42.432C175.754 43.928 176.275 44.9707 177.318 45.56C178.406 46.104 179.675 46.4667 181.126 46.648L186.702 47.532C188.107 47.7587 189.49 48.0533 190.85 48.416C192.255 48.7787 193.502 49.3453 194.59 50.116C195.723 50.8413 196.63 51.7933 197.31 52.972C198.035 54.1507 198.398 55.6467 198.398 57.46C198.398 60.996 197.015 63.784 194.25 65.824C191.53 67.8187 187.767 68.816 182.962 68.816ZM225.015 68.816C222.341 68.816 219.938 68.3853 217.807 67.524C215.677 66.6627 213.886 65.4387 212.435 63.852C210.985 62.2653 209.874 60.3613 209.103 58.14C208.333 55.8733 207.947 53.3347 207.947 50.524C207.947 47.7133 208.333 45.1747 209.103 42.908C209.919 40.6413 211.03 38.7147 212.435 37.128C213.886 35.496 215.631 34.2493 217.671 33.388C219.711 32.5267 221.978 32.096 224.471 32.096C226.919 32.096 229.141 32.5267 231.135 33.388C233.13 34.204 234.83 35.3827 236.235 36.924C237.641 38.4653 238.706 40.3013 239.431 42.432C240.202 44.5627 240.587 46.92 240.587 49.504V52.292H215.427V53.448C215.427 56.2133 216.289 58.48 218.011 60.248C219.734 61.9707 222.114 62.832 225.151 62.832C227.418 62.832 229.345 62.356 230.931 61.404C232.563 60.4067 233.878 59.092 234.875 57.46L239.499 61.54C238.321 63.58 236.507 65.3027 234.059 66.708C231.657 68.1133 228.642 68.816 225.015 68.816ZM224.471 37.74C223.157 37.74 221.933 37.9667 220.799 38.42C219.711 38.8733 218.759 39.5307 217.943 40.392C217.173 41.208 216.561 42.1827 216.107 43.316C215.654 44.4493 215.427 45.696 215.427 47.056V47.532H233.039V46.852C233.039 44.0867 232.246 41.888 230.659 40.256C229.118 38.5787 227.055 37.74 224.471 37.74ZM266.389 68.816C263.714 68.816 261.311 68.3853 259.181 67.524C257.05 66.6627 255.259 65.4387 253.809 63.852C252.358 62.2653 251.247 60.3613 250.477 58.14C249.706 55.8733 249.321 53.3347 249.321 50.524C249.321 47.7133 249.706 45.1747 250.477 42.908C251.293 40.6413 252.403 38.7147 253.809 37.128C255.259 35.496 257.005 34.2493 259.045 33.388C261.085 32.5267 263.351 32.096 265.845 32.096C268.293 32.096 270.514 32.5267 272.509 33.388C274.503 34.204 276.203 35.3827 277.609 36.924C279.014 38.4653 280.079 40.3013 280.805 42.432C281.575 44.5627 281.961 46.92 281.961 49.504V52.292H256.801V53.448C256.801 56.2133 257.662 58.48 259.385 60.248C261.107 61.9707 263.487 62.832 266.525 62.832C268.791 62.832 270.718 62.356 272.305 61.404C273.937 60.4067 275.251 59.092 276.249 57.46L280.873 61.54C279.694 63.58 277.881 65.3027 275.433 66.708C273.03 68.1133 270.015 68.816 266.389 68.816ZM265.845 37.74C264.53 37.74 263.306 37.9667 262.173 38.42C261.085 38.8733 260.133 39.5307 259.317 40.392C258.546 41.208 257.934 42.1827 257.481 43.316C257.027 44.4493 256.801 45.696 256.801 47.056V47.532H274.413V46.852C274.413 44.0867 273.619 41.888 272.033 40.256C270.491 38.5787 268.429 37.74 265.845 37.74ZM292.598 17.68H300.01V48.076H300.35L305.858 42.432L315.718 32.912H324.49L310.278 46.716L326.054 68H317.146L304.906 50.932L300.01 55.488V68H292.598V17.68ZM338.119 51V43.588H358.655V51H338.119ZM374.529 62.016H383.845V38.896H374.529V32.912H391.257V42.228H391.665C391.982 41.004 392.436 39.8253 393.025 38.692C393.614 37.5587 394.362 36.584 395.269 35.768C396.176 34.9067 397.286 34.2267 398.601 33.728C399.916 33.184 401.457 32.912 403.225 32.912H407.441V39.984H400.505C397.785 39.984 395.564 40.8 393.841 42.432C392.118 44.0187 391.257 46.172 391.257 48.892V62.016H403.973V68H374.529V62.016ZM431.202 68.816C427.394 68.816 424.108 68.204 421.342 66.98C418.622 65.756 416.424 64.124 414.746 62.084L419.302 58.004C420.844 59.6813 422.566 60.9733 424.47 61.88C426.42 62.7413 428.709 63.172 431.338 63.172C433.741 63.172 435.668 62.764 437.118 61.948C438.614 61.132 439.362 59.8627 439.362 58.14C439.362 57.4147 439.226 56.8027 438.954 56.304C438.682 55.8053 438.297 55.3973 437.798 55.08C437.3 54.7627 436.71 54.5133 436.03 54.332C435.396 54.1507 434.716 54.0147 433.99 53.924L428.414 53.04C427.054 52.8587 425.672 52.564 424.266 52.156C422.861 51.748 421.592 51.1813 420.458 50.456C419.37 49.6853 418.464 48.7107 417.738 47.532C417.058 46.3533 416.718 44.8573 416.718 43.044C416.718 39.4627 418.078 36.7427 420.798 34.884C423.564 33.0253 427.19 32.096 431.678 32.096C434.942 32.096 437.753 32.5947 440.11 33.592C442.513 34.544 444.508 35.8813 446.094 37.604L441.946 41.956C441.04 40.9133 439.748 39.9613 438.07 39.1C436.393 38.1933 434.172 37.74 431.406 37.74C426.465 37.74 423.994 39.304 423.994 42.432C423.994 43.928 424.516 44.9707 425.558 45.56C426.646 46.104 427.916 46.4667 429.366 46.648L434.942 47.532C436.348 47.7587 437.73 48.0533 439.09 48.416C440.496 48.7787 441.742 49.3453 442.83 50.116C443.964 50.8413 444.87 51.7933 445.55 52.972C446.276 54.1507 446.638 55.6467 446.638 57.46C446.638 60.996 445.256 63.784 442.49 65.824C439.77 67.8187 436.008 68.816 431.202 68.816Z" fill="#1E1A17"/>
<rect x="462" y="15" width="27" height="59" rx="3" fill="#C1502E"/>
</svg>
